<svg width="28" height="28" viewBox="0 0 28 28" fill="none" xmlns="http://www.w3.org/2000/svg">
<path d="M21.4466 9.37426C20.89 9.6205 20.2996 9.78223 19.6952 9.8541C20.332 9.4729 20.8085 8.87321 21.036 8.16676C20.4376 8.52227 19.7827 8.77249 19.0996 8.90654C18.5231 8.29146 17.7173 7.94289 16.8742 7.94385C15.1904 7.94385 13.8248 9.30904 13.8248 10.9936C13.8248 11.2325 13.8522 11.4643 13.9035 11.6879C11.3681 11.5603 9.12193 10.3469 7.61745 8.50171C7.34657 8.96711 7.20421 9.49613 7.20493 10.0346C7.20493 11.0926 7.74346 12.0264 8.56151 12.5731C8.07725 12.5577 7.60367 12.427 7.18024 12.1915C7.17977 12.2043 7.17977 12.2171 7.17977 12.2292C7.17977 13.7072 8.23098 14.9401 9.62645 15.22C9.36455 15.2909 9.0944 15.3267 8.82308 15.3265C8.62602 15.3265 8.43479 15.3083 8.24891 15.2727C8.63721 16.4839 9.76271 17.3658 11.0976 17.39C10.0174 18.2378 8.68342 18.6978 7.31021 18.6958C7.06717 18.696 6.82434 18.6817 6.58301 18.6529C7.97712 19.5491 9.59986 20.0248 11.2572 20.023C16.8668 20.023 19.934 15.3763 19.934 11.3467C19.934 11.2148 19.9308 11.0825 19.9249 10.9521C20.5219 10.5208 21.0372 9.98648 21.4466 9.37426Z" fill="#C8C6D3"/>
</svg>
