<svg width="37" height="36" viewBox="0 0 37 36" fill="none" xmlns="http://www.w3.org/2000/svg">
<path fill-rule="evenodd" clip-rule="evenodd" d="M17.8395 36C15.7745 36 13.794 35.2018 12.3338 33.7811C10.8735 32.3603 10.0532 30.4333 10.0532 28.4241V19.6178C10.0532 17.6086 10.8735 15.6816 12.3338 14.2608C13.794 12.8401 15.7745 12.0419 17.8395 12.0419C19.9046 12.0419 21.8851 12.8401 23.3453 14.2608C24.8056 15.6816 25.6259 17.6086 25.6259 19.6178V28.4241C25.6259 30.4333 24.8056 32.3603 23.3453 33.7811C21.8851 35.2018 19.9046 36 17.8395 36ZM15.8574 5.12357V2.00546C15.8574 0.940371 16.7448 0.0768852 17.8395 0.0768852C18.9342 0.0768852 19.8216 0.940371 19.8216 2.00546V5.12357C27.1778 5.45914 33.0359 11.3683 33.0359 18.6086C33.0359 19.6738 32.1485 20.5372 31.0538 20.5372C29.9591 20.5372 29.0716 19.6738 29.0716 18.6086C29.0716 13.283 24.6345 8.9658 19.1609 8.9658H17.8756C17.8636 8.96606 17.8516 8.96606 17.8395 8.96606C17.8274 8.96606 17.8154 8.96606 17.8034 8.9658H16.5181C11.0445 8.9658 6.60735 13.283 6.60735 18.6086C6.60735 19.6738 5.71991 20.5372 4.62521 20.5372C3.53051 20.5372 2.64307 19.6738 2.64307 18.6086C2.64307 11.3683 8.5012 5.45914 15.8574 5.12357Z" fill="black"/>
</svg>
