<svg width="37" height="36" viewBox="0 0 37 36" fill="none" xmlns="http://www.w3.org/2000/svg">
<path fill-rule="evenodd" clip-rule="evenodd" d="M17.8395 0C15.7745 0 13.794 0.798174 12.3338 2.21893C10.8735 3.6397 10.0532 5.56665 10.0532 7.57592V16.3822C10.0532 18.3914 10.8735 20.3184 12.3338 21.7392C13.794 23.1599 15.7745 23.9581 17.8395 23.9581C19.9046 23.9581 21.8851 23.1599 23.3453 21.7392C24.8056 20.3184 25.6259 18.3914 25.6259 16.3822V7.57592C25.6259 5.56665 24.8056 3.6397 23.3453 2.21893C21.8851 0.798174 19.9046 0 17.8395 0ZM15.8574 30.8764V33.9945C15.8574 35.0596 16.7448 35.9231 17.8395 35.9231C18.9342 35.9231 19.8216 35.0596 19.8216 33.9945V30.8764C27.1778 30.5409 33.0359 24.6317 33.0359 17.3914C33.0359 16.3262 32.1485 15.4628 31.0538 15.4628C29.9591 15.4628 29.0716 16.3262 29.0716 17.3914C29.0716 22.717 24.6345 27.0342 19.1609 27.0342H17.8756C17.8636 27.0339 17.8516 27.0339 17.8395 27.0339C17.8274 27.0339 17.8154 27.0339 17.8034 27.0342H16.5181C11.0445 27.0342 6.60735 22.717 6.60735 17.3914C6.60735 16.3262 5.71991 15.4628 4.62521 15.4628C3.53051 15.4628 2.64307 16.3262 2.64307 17.3914C2.64307 24.6317 8.5012 30.5409 15.8574 30.8764Z" fill="black"/>
</svg>
